<mxfile host="www.draw.io" modified="2020-03-08T13:07:31.936Z" agent="Mozilla/5.0 (Windows NT 6.1; Win64; x64) AppleWebKit/537.36 (KHTML, like Gecko) Chrome/80.0.3987.132 Safari/537.36" etag="my43fPy2NXdRQy2SFfVr" version="12.8.1" type="github">
  <diagram id="fjW9XBGuvEGNRJiDpevI" name="Page-1">
    <mxGraphModel dx="1646" dy="1749" grid="1" gridSize="10" guides="1" tooltips="1" connect="1" arrows="1" fold="1" page="1" pageScale="1" pageWidth="850" pageHeight="1100" math="0" shadow="0">
      <root>
        <mxCell id="0" />
        <mxCell id="1" parent="0" />
        <mxCell id="ZYrpAKafaMUzDecGM8QH-43" value="Category" style="swimlane;html=1;fontStyle=0;childLayout=stackLayout;horizontal=1;startSize=26;fillColor=#FFD966;horizontalStack=0;resizeParent=1;resizeLast=0;collapsible=1;marginBottom=0;swimlaneFillColor=#ffffff;rounded=0;shadow=0;comic=0;labelBackgroundColor=none;strokeWidth=1;fontFamily=Verdana;fontSize=10;align=center;" parent="1" vertex="1">
          <mxGeometry x="-170" y="500" width="160" height="180" as="geometry" />
        </mxCell>
        <mxCell id="4Ubxrk7s4MT3tRCv33ai-3" value="PK&amp;nbsp; Id :&amp;nbsp;&lt;span style=&quot;font-family: &amp;#34;arial&amp;#34; , &amp;#34;helvetica&amp;#34; , sans-serif ; font-size: 13.3333px ; background-color: rgb(255 , 255 , 255)&quot;&gt;BIGINT&lt;/span&gt;(?)&lt;span style=&quot;font-family: &amp;#34;arial&amp;#34; , &amp;#34;helvetica&amp;#34; , sans-serif ; font-size: 13.3333px ; background-color: rgb(255 , 255 , 255)&quot;&gt;&lt;br&gt;&amp;nbsp;&lt;/span&gt;" style="text;html=1;strokeColor=none;fillColor=none;align=left;verticalAlign=top;spacingLeft=4;spacingRight=4;whiteSpace=wrap;overflow=hidden;rotatable=0;points=[[0,0.5],[1,0.5]];portConstraint=eastwest;" vertex="1" parent="ZYrpAKafaMUzDecGM8QH-43">
          <mxGeometry y="26" width="160" height="26" as="geometry" />
        </mxCell>
        <mxCell id="ZYrpAKafaMUzDecGM8QH-44" value="name :&amp;nbsp; VARCHAR(?)" style="text;html=1;strokeColor=none;fillColor=none;align=left;verticalAlign=top;spacingLeft=4;spacingRight=4;whiteSpace=wrap;overflow=hidden;rotatable=0;points=[[0,0.5],[1,0.5]];portConstraint=eastwest;" parent="ZYrpAKafaMUzDecGM8QH-43" vertex="1">
          <mxGeometry y="52" width="160" height="30" as="geometry" />
        </mxCell>
        <mxCell id="4Ubxrk7s4MT3tRCv33ai-4" value="createdDate : timestamp" style="text;html=1;strokeColor=none;fillColor=none;align=left;verticalAlign=top;spacingLeft=4;spacingRight=4;whiteSpace=wrap;overflow=hidden;rotatable=0;points=[[0,0.5],[1,0.5]];portConstraint=eastwest;" vertex="1" parent="ZYrpAKafaMUzDecGM8QH-43">
          <mxGeometry y="82" width="160" height="26" as="geometry" />
        </mxCell>
        <mxCell id="4Ubxrk7s4MT3tRCv33ai-5" value="isDeleted :&amp;nbsp;&lt;span style=&quot;font-family: &amp;#34;open sans&amp;#34; , &amp;#34;arial&amp;#34; , sans-serif ; font-size: 14px&quot;&gt;boolean&lt;/span&gt;" style="text;html=1;strokeColor=none;fillColor=none;align=left;verticalAlign=top;spacingLeft=4;spacingRight=4;whiteSpace=wrap;overflow=hidden;rotatable=0;points=[[0,0.5],[1,0.5]];portConstraint=eastwest;" vertex="1" parent="ZYrpAKafaMUzDecGM8QH-43">
          <mxGeometry y="108" width="160" height="26" as="geometry" />
        </mxCell>
        <mxCell id="ZYrpAKafaMUzDecGM8QH-45" value="Service" style="swimlane;html=1;fontStyle=0;childLayout=stackLayout;horizontal=1;startSize=26;fillColor=#FFD966;horizontalStack=0;resizeParent=1;resizeLast=0;collapsible=1;marginBottom=0;swimlaneFillColor=#ffffff;rounded=0;shadow=0;comic=0;labelBackgroundColor=none;strokeWidth=1;fontFamily=Verdana;fontSize=10;align=center;" parent="1" vertex="1">
          <mxGeometry x="-460" y="-429" width="240" height="369" as="geometry" />
        </mxCell>
        <mxCell id="4Ubxrk7s4MT3tRCv33ai-59" value="PK&amp;nbsp; Id :&amp;nbsp;&lt;span style=&quot;font-family: &amp;#34;arial&amp;#34; , &amp;#34;helvetica&amp;#34; , sans-serif ; font-size: 13.3333px ; background-color: rgb(255 , 255 , 255)&quot;&gt;BIGINT&lt;/span&gt;(?)&lt;span style=&quot;font-family: &amp;#34;arial&amp;#34; , &amp;#34;helvetica&amp;#34; , sans-serif ; font-size: 13.3333px ; background-color: rgb(255 , 255 , 255)&quot;&gt;&lt;br&gt;&amp;nbsp;&lt;/span&gt;" style="text;html=1;strokeColor=none;fillColor=none;align=left;verticalAlign=top;spacingLeft=4;spacingRight=4;whiteSpace=wrap;overflow=hidden;rotatable=0;points=[[0,0.5],[1,0.5]];portConstraint=eastwest;" vertex="1" parent="ZYrpAKafaMUzDecGM8QH-45">
          <mxGeometry y="26" width="240" height="27" as="geometry" />
        </mxCell>
        <mxCell id="ZYrpAKafaMUzDecGM8QH-46" value="PK&amp;nbsp; CategoryID :&amp;nbsp;&lt;span style=&quot;font-family: &amp;#34;arial&amp;#34; , &amp;#34;helvetica&amp;#34; , sans-serif ; font-size: 13.3333px ; background-color: rgb(255 , 255 , 255)&quot;&gt;BIGINT&lt;/span&gt;(?)&lt;span style=&quot;font-family: &amp;#34;arial&amp;#34; , &amp;#34;helvetica&amp;#34; , sans-serif ; font-size: 13.3333px ; background-color: rgb(255 , 255 , 255)&quot;&gt;&lt;br&gt;&amp;nbsp;&lt;/span&gt;" style="text;html=1;strokeColor=none;fillColor=none;align=left;verticalAlign=top;spacingLeft=4;spacingRight=4;whiteSpace=wrap;overflow=hidden;rotatable=0;points=[[0,0.5],[1,0.5]];portConstraint=eastwest;" parent="ZYrpAKafaMUzDecGM8QH-45" vertex="1">
          <mxGeometry y="53" width="240" height="26" as="geometry" />
        </mxCell>
        <mxCell id="4Ubxrk7s4MT3tRCv33ai-65" value="PK&amp;nbsp; LocationID :&amp;nbsp;&lt;span style=&quot;font-family: &amp;#34;arial&amp;#34; , &amp;#34;helvetica&amp;#34; , sans-serif ; font-size: 13.3333px ; background-color: rgb(255 , 255 , 255)&quot;&gt;BIGINT&lt;/span&gt;(?)&lt;span style=&quot;font-family: &amp;#34;arial&amp;#34; , &amp;#34;helvetica&amp;#34; , sans-serif ; font-size: 13.3333px ; background-color: rgb(255 , 255 , 255)&quot;&gt;&lt;br&gt;&amp;nbsp;&lt;/span&gt;" style="text;html=1;strokeColor=none;fillColor=none;align=left;verticalAlign=top;spacingLeft=4;spacingRight=4;whiteSpace=wrap;overflow=hidden;rotatable=0;points=[[0,0.5],[1,0.5]];portConstraint=eastwest;" vertex="1" parent="ZYrpAKafaMUzDecGM8QH-45">
          <mxGeometry y="79" width="240" height="26" as="geometry" />
        </mxCell>
        <mxCell id="4Ubxrk7s4MT3tRCv33ai-66" value="PK&amp;nbsp; PriceID :&amp;nbsp;&lt;span style=&quot;font-family: &amp;#34;arial&amp;#34; , &amp;#34;helvetica&amp;#34; , sans-serif ; font-size: 13.3333px ; background-color: rgb(255 , 255 , 255)&quot;&gt;BIGINT&lt;/span&gt;(?)&lt;span style=&quot;font-family: &amp;#34;arial&amp;#34; , &amp;#34;helvetica&amp;#34; , sans-serif ; font-size: 13.3333px ; background-color: rgb(255 , 255 , 255)&quot;&gt;&lt;br&gt;&amp;nbsp;&lt;/span&gt;" style="text;html=1;strokeColor=none;fillColor=none;align=left;verticalAlign=top;spacingLeft=4;spacingRight=4;whiteSpace=wrap;overflow=hidden;rotatable=0;points=[[0,0.5],[1,0.5]];portConstraint=eastwest;" vertex="1" parent="ZYrpAKafaMUzDecGM8QH-45">
          <mxGeometry y="105" width="240" height="26" as="geometry" />
        </mxCell>
        <mxCell id="ZYrpAKafaMUzDecGM8QH-49" value="startDate : date" style="text;html=1;strokeColor=none;fillColor=none;align=left;verticalAlign=top;spacingLeft=4;spacingRight=4;whiteSpace=wrap;overflow=hidden;rotatable=0;points=[[0,0.5],[1,0.5]];portConstraint=eastwest;" parent="ZYrpAKafaMUzDecGM8QH-45" vertex="1">
          <mxGeometry y="131" width="240" height="26" as="geometry" />
        </mxCell>
        <mxCell id="4Ubxrk7s4MT3tRCv33ai-63" value="endDate : date" style="text;html=1;strokeColor=none;fillColor=none;align=left;verticalAlign=top;spacingLeft=4;spacingRight=4;whiteSpace=wrap;overflow=hidden;rotatable=0;points=[[0,0.5],[1,0.5]];portConstraint=eastwest;" vertex="1" parent="ZYrpAKafaMUzDecGM8QH-45">
          <mxGeometry y="157" width="240" height="26" as="geometry" />
        </mxCell>
        <mxCell id="ZYrpAKafaMUzDecGM8QH-51" value="isOffer : boolean" style="text;html=1;strokeColor=none;fillColor=none;align=left;verticalAlign=top;spacingLeft=4;spacingRight=4;whiteSpace=wrap;overflow=hidden;rotatable=0;points=[[0,0.5],[1,0.5]];portConstraint=eastwest;" parent="ZYrpAKafaMUzDecGM8QH-45" vertex="1">
          <mxGeometry y="183" width="240" height="30" as="geometry" />
        </mxCell>
        <mxCell id="ZYrpAKafaMUzDecGM8QH-52" value="subject&amp;nbsp; : VARCHAR(?)" style="text;html=1;strokeColor=none;fillColor=none;align=left;verticalAlign=top;spacingLeft=4;spacingRight=4;whiteSpace=wrap;overflow=hidden;rotatable=0;points=[[0,0.5],[1,0.5]];portConstraint=eastwest;" parent="ZYrpAKafaMUzDecGM8QH-45" vertex="1">
          <mxGeometry y="213" width="240" height="30" as="geometry" />
        </mxCell>
        <mxCell id="ZYrpAKafaMUzDecGM8QH-53" value="serviceDescription :&amp;nbsp; VARCHAR(?)" style="text;html=1;strokeColor=none;fillColor=none;align=left;verticalAlign=top;spacingLeft=4;spacingRight=4;whiteSpace=wrap;overflow=hidden;rotatable=0;points=[[0,0.5],[1,0.5]];portConstraint=eastwest;" parent="ZYrpAKafaMUzDecGM8QH-45" vertex="1">
          <mxGeometry y="243" width="240" height="30" as="geometry" />
        </mxCell>
        <mxCell id="ZYrpAKafaMUzDecGM8QH-54" value="isActive : boolean" style="text;html=1;strokeColor=none;fillColor=none;align=left;verticalAlign=top;spacingLeft=4;spacingRight=4;whiteSpace=wrap;overflow=hidden;rotatable=0;points=[[0,0.5],[1,0.5]];portConstraint=eastwest;" parent="ZYrpAKafaMUzDecGM8QH-45" vertex="1">
          <mxGeometry y="273" width="240" height="30" as="geometry" />
        </mxCell>
        <mxCell id="4Ubxrk7s4MT3tRCv33ai-61" value="isDeleted :&amp;nbsp;&lt;span style=&quot;font-family: &amp;#34;open sans&amp;#34; , &amp;#34;arial&amp;#34; , sans-serif ; font-size: 14px&quot;&gt;boolean&lt;/span&gt;" style="text;html=1;strokeColor=none;fillColor=none;align=left;verticalAlign=top;spacingLeft=4;spacingRight=4;whiteSpace=wrap;overflow=hidden;rotatable=0;points=[[0,0.5],[1,0.5]];portConstraint=eastwest;" vertex="1" parent="ZYrpAKafaMUzDecGM8QH-45">
          <mxGeometry y="303" width="240" height="26" as="geometry" />
        </mxCell>
        <mxCell id="4Ubxrk7s4MT3tRCv33ai-60" value="createdDate : date" style="text;html=1;strokeColor=none;fillColor=none;align=left;verticalAlign=top;spacingLeft=4;spacingRight=4;whiteSpace=wrap;overflow=hidden;rotatable=0;points=[[0,0.5],[1,0.5]];portConstraint=eastwest;" vertex="1" parent="ZYrpAKafaMUzDecGM8QH-45">
          <mxGeometry y="329" width="240" height="26" as="geometry" />
        </mxCell>
        <mxCell id="ZYrpAKafaMUzDecGM8QH-66" value="" style="endArrow=diamondThin;endFill=1;endSize=24;html=1;exitX=0;exitY=0.5;exitDx=0;exitDy=0;entryX=1;entryY=0.5;entryDx=0;entryDy=0;" parent="1" edge="1">
          <mxGeometry width="160" relative="1" as="geometry">
            <mxPoint y="99.99999999999977" as="sourcePoint" />
            <mxPoint x="-250" y="-254" as="targetPoint" />
            <Array as="points">
              <mxPoint x="-20" y="100" />
              <mxPoint x="-20" y="-280" />
            </Array>
          </mxGeometry>
        </mxCell>
        <mxCell id="ZYrpAKafaMUzDecGM8QH-68" value="" style="endArrow=diamondThin;endFill=1;endSize=24;html=1;exitX=0.5;exitY=0;exitDx=0;exitDy=0;entryX=1;entryY=0.5;entryDx=0;entryDy=0;" parent="1" source="ZYrpAKafaMUzDecGM8QH-43" target="ZYrpAKafaMUzDecGM8QH-54" edge="1">
          <mxGeometry width="160" relative="1" as="geometry">
            <mxPoint x="-370" y="110" as="sourcePoint" />
            <mxPoint x="-260" y="220" as="targetPoint" />
            <Array as="points">
              <mxPoint x="-90" y="400" />
              <mxPoint x="-190" y="400" />
              <mxPoint x="-190" y="265" />
              <mxPoint x="-190" y="-164" />
            </Array>
          </mxGeometry>
        </mxCell>
        <mxCell id="4Ubxrk7s4MT3tRCv33ai-6" value="Area" style="swimlane;html=1;fontStyle=0;childLayout=stackLayout;horizontal=1;startSize=26;fillColor=#FFD966;horizontalStack=0;resizeParent=1;resizeLast=0;collapsible=1;marginBottom=0;swimlaneFillColor=#ffffff;rounded=0;shadow=0;comic=0;labelBackgroundColor=none;strokeWidth=1;fontFamily=Verdana;fontSize=10;align=center;" vertex="1" parent="1">
          <mxGeometry x="-830" y="140" width="160" height="180" as="geometry" />
        </mxCell>
        <mxCell id="4Ubxrk7s4MT3tRCv33ai-8" value="PK&amp;nbsp; Id :&amp;nbsp;&lt;span style=&quot;font-family: &amp;#34;arial&amp;#34; , &amp;#34;helvetica&amp;#34; , sans-serif ; font-size: 13.3333px ; background-color: rgb(255 , 255 , 255)&quot;&gt;BIGINT&lt;/span&gt;(?)&lt;span style=&quot;font-family: &amp;#34;arial&amp;#34; , &amp;#34;helvetica&amp;#34; , sans-serif ; font-size: 13.3333px ; background-color: rgb(255 , 255 , 255)&quot;&gt;&lt;br&gt;&amp;nbsp;&lt;/span&gt;" style="text;html=1;strokeColor=none;fillColor=none;align=left;verticalAlign=top;spacingLeft=4;spacingRight=4;whiteSpace=wrap;overflow=hidden;rotatable=0;points=[[0,0.5],[1,0.5]];portConstraint=eastwest;" vertex="1" parent="4Ubxrk7s4MT3tRCv33ai-6">
          <mxGeometry y="26" width="160" height="26" as="geometry" />
        </mxCell>
        <mxCell id="4Ubxrk7s4MT3tRCv33ai-7" value="name :&amp;nbsp; VARCHAR(?)" style="text;html=1;strokeColor=none;fillColor=none;align=left;verticalAlign=top;spacingLeft=4;spacingRight=4;whiteSpace=wrap;overflow=hidden;rotatable=0;points=[[0,0.5],[1,0.5]];portConstraint=eastwest;" vertex="1" parent="4Ubxrk7s4MT3tRCv33ai-6">
          <mxGeometry y="52" width="160" height="30" as="geometry" />
        </mxCell>
        <mxCell id="4Ubxrk7s4MT3tRCv33ai-9" value="createdDate : date" style="text;html=1;strokeColor=none;fillColor=none;align=left;verticalAlign=top;spacingLeft=4;spacingRight=4;whiteSpace=wrap;overflow=hidden;rotatable=0;points=[[0,0.5],[1,0.5]];portConstraint=eastwest;" vertex="1" parent="4Ubxrk7s4MT3tRCv33ai-6">
          <mxGeometry y="82" width="160" height="26" as="geometry" />
        </mxCell>
        <mxCell id="4Ubxrk7s4MT3tRCv33ai-10" value="isDeleted :&amp;nbsp;&lt;span style=&quot;font-family: &amp;#34;open sans&amp;#34; , &amp;#34;arial&amp;#34; , sans-serif ; font-size: 14px&quot;&gt;boolean&lt;/span&gt;" style="text;html=1;strokeColor=none;fillColor=none;align=left;verticalAlign=top;spacingLeft=4;spacingRight=4;whiteSpace=wrap;overflow=hidden;rotatable=0;points=[[0,0.5],[1,0.5]];portConstraint=eastwest;" vertex="1" parent="4Ubxrk7s4MT3tRCv33ai-6">
          <mxGeometry y="108" width="160" height="26" as="geometry" />
        </mxCell>
        <mxCell id="4Ubxrk7s4MT3tRCv33ai-11" value="User" style="swimlane;html=1;fontStyle=0;childLayout=stackLayout;horizontal=1;startSize=26;fillColor=#FFD966;horizontalStack=0;resizeParent=1;resizeLast=0;collapsible=1;marginBottom=0;swimlaneFillColor=#ffffff;rounded=0;shadow=0;comic=0;labelBackgroundColor=none;strokeWidth=1;fontFamily=Verdana;fontSize=10;align=center;" vertex="1" parent="1">
          <mxGeometry x="-720" y="-540" width="180" height="242" as="geometry" />
        </mxCell>
        <mxCell id="4Ubxrk7s4MT3tRCv33ai-13" value="PK&amp;nbsp; Id :&amp;nbsp;&lt;span style=&quot;font-family: &amp;#34;arial&amp;#34; , &amp;#34;helvetica&amp;#34; , sans-serif ; font-size: 13.3333px ; background-color: rgb(255 , 255 , 255)&quot;&gt;BIGINT&lt;/span&gt;(?)&lt;span style=&quot;font-family: &amp;#34;arial&amp;#34; , &amp;#34;helvetica&amp;#34; , sans-serif ; font-size: 13.3333px ; background-color: rgb(255 , 255 , 255)&quot;&gt;&lt;br&gt;&amp;nbsp;&lt;/span&gt;" style="text;html=1;strokeColor=none;fillColor=none;align=left;verticalAlign=top;spacingLeft=4;spacingRight=4;whiteSpace=wrap;overflow=hidden;rotatable=0;points=[[0,0.5],[1,0.5]];portConstraint=eastwest;" vertex="1" parent="4Ubxrk7s4MT3tRCv33ai-11">
          <mxGeometry y="26" width="180" height="26" as="geometry" />
        </mxCell>
        <mxCell id="4Ubxrk7s4MT3tRCv33ai-12" value="firstName :&amp;nbsp; VARCHAR(?)" style="text;html=1;strokeColor=none;fillColor=none;align=left;verticalAlign=top;spacingLeft=4;spacingRight=4;whiteSpace=wrap;overflow=hidden;rotatable=0;points=[[0,0.5],[1,0.5]];portConstraint=eastwest;" vertex="1" parent="4Ubxrk7s4MT3tRCv33ai-11">
          <mxGeometry y="52" width="180" height="30" as="geometry" />
        </mxCell>
        <mxCell id="4Ubxrk7s4MT3tRCv33ai-18" value="lastName :&amp;nbsp; VARCHAR(?)" style="text;html=1;strokeColor=none;fillColor=none;align=left;verticalAlign=top;spacingLeft=4;spacingRight=4;whiteSpace=wrap;overflow=hidden;rotatable=0;points=[[0,0.5],[1,0.5]];portConstraint=eastwest;" vertex="1" parent="4Ubxrk7s4MT3tRCv33ai-11">
          <mxGeometry y="82" width="180" height="30" as="geometry" />
        </mxCell>
        <mxCell id="4Ubxrk7s4MT3tRCv33ai-15" value="isMale :&amp;nbsp;&lt;span style=&quot;font-family: &amp;#34;open sans&amp;#34; , &amp;#34;arial&amp;#34; , sans-serif ; font-size: 14px&quot;&gt;boolean&lt;/span&gt;" style="text;html=1;strokeColor=none;fillColor=none;align=left;verticalAlign=top;spacingLeft=4;spacingRight=4;whiteSpace=wrap;overflow=hidden;rotatable=0;points=[[0,0.5],[1,0.5]];portConstraint=eastwest;" vertex="1" parent="4Ubxrk7s4MT3tRCv33ai-11">
          <mxGeometry y="112" width="180" height="26" as="geometry" />
        </mxCell>
        <mxCell id="4Ubxrk7s4MT3tRCv33ai-56" value="FK&amp;nbsp; ServiceID :&amp;nbsp;&lt;span style=&quot;font-family: &amp;#34;arial&amp;#34; , &amp;#34;helvetica&amp;#34; , sans-serif ; font-size: 13.3333px ; background-color: rgb(255 , 255 , 255)&quot;&gt;BIGINT&lt;/span&gt;(?)&lt;span style=&quot;font-family: &amp;#34;arial&amp;#34; , &amp;#34;helvetica&amp;#34; , sans-serif ; font-size: 13.3333px ; background-color: rgb(255 , 255 , 255)&quot;&gt;&lt;br&gt;&amp;nbsp;&lt;/span&gt;" style="text;html=1;strokeColor=none;fillColor=none;align=left;verticalAlign=top;spacingLeft=4;spacingRight=4;whiteSpace=wrap;overflow=hidden;rotatable=0;points=[[0,0.5],[1,0.5]];portConstraint=eastwest;" vertex="1" parent="4Ubxrk7s4MT3tRCv33ai-11">
          <mxGeometry y="138" width="180" height="26" as="geometry" />
        </mxCell>
        <mxCell id="4Ubxrk7s4MT3tRCv33ai-57" value="FK&amp;nbsp; LocationID :&amp;nbsp;&lt;span style=&quot;font-family: &amp;#34;arial&amp;#34; , &amp;#34;helvetica&amp;#34; , sans-serif ; font-size: 13.3333px ; background-color: rgb(255 , 255 , 255)&quot;&gt;BIGINT&lt;/span&gt;(?)&lt;span style=&quot;font-family: &amp;#34;arial&amp;#34; , &amp;#34;helvetica&amp;#34; , sans-serif ; font-size: 13.3333px ; background-color: rgb(255 , 255 , 255)&quot;&gt;&lt;br&gt;&amp;nbsp;&lt;/span&gt;" style="text;html=1;strokeColor=none;fillColor=none;align=left;verticalAlign=top;spacingLeft=4;spacingRight=4;whiteSpace=wrap;overflow=hidden;rotatable=0;points=[[0,0.5],[1,0.5]];portConstraint=eastwest;" vertex="1" parent="4Ubxrk7s4MT3tRCv33ai-11">
          <mxGeometry y="164" width="180" height="26" as="geometry" />
        </mxCell>
        <mxCell id="4Ubxrk7s4MT3tRCv33ai-14" value="isDeleted :&amp;nbsp;&lt;span style=&quot;font-family: &amp;#34;open sans&amp;#34; , &amp;#34;arial&amp;#34; , sans-serif ; font-size: 14px&quot;&gt;boolean&lt;/span&gt;" style="text;html=1;strokeColor=none;fillColor=none;align=left;verticalAlign=top;spacingLeft=4;spacingRight=4;whiteSpace=wrap;overflow=hidden;rotatable=0;points=[[0,0.5],[1,0.5]];portConstraint=eastwest;" vertex="1" parent="4Ubxrk7s4MT3tRCv33ai-11">
          <mxGeometry y="190" width="180" height="26" as="geometry" />
        </mxCell>
        <mxCell id="4Ubxrk7s4MT3tRCv33ai-58" value="createdDate : date" style="text;html=1;strokeColor=none;fillColor=none;align=left;verticalAlign=top;spacingLeft=4;spacingRight=4;whiteSpace=wrap;overflow=hidden;rotatable=0;points=[[0,0.5],[1,0.5]];portConstraint=eastwest;" vertex="1" parent="4Ubxrk7s4MT3tRCv33ai-11">
          <mxGeometry y="216" width="180" height="26" as="geometry" />
        </mxCell>
        <mxCell id="4Ubxrk7s4MT3tRCv33ai-68" style="edgeStyle=orthogonalEdgeStyle;rounded=0;orthogonalLoop=1;jettySize=auto;html=1;" edge="1" parent="1" source="4Ubxrk7s4MT3tRCv33ai-19">
          <mxGeometry relative="1" as="geometry">
            <mxPoint x="-330" y="-60" as="targetPoint" />
          </mxGeometry>
        </mxCell>
        <mxCell id="4Ubxrk7s4MT3tRCv33ai-19" value="Location" style="swimlane;html=1;fontStyle=0;childLayout=stackLayout;horizontal=1;startSize=26;fillColor=#FFD966;horizontalStack=0;resizeParent=1;resizeLast=0;collapsible=1;marginBottom=0;swimlaneFillColor=#ffffff;rounded=0;shadow=0;comic=0;labelBackgroundColor=none;strokeWidth=1;fontFamily=Verdana;fontSize=10;align=center;" vertex="1" parent="1">
          <mxGeometry x="-590" y="140" width="160" height="260" as="geometry" />
        </mxCell>
        <mxCell id="4Ubxrk7s4MT3tRCv33ai-21" value="PK Id :&amp;nbsp;&lt;span style=&quot;font-family: &amp;#34;arial&amp;#34; , &amp;#34;helvetica&amp;#34; , sans-serif ; font-size: 13.3333px ; background-color: rgb(255 , 255 , 255)&quot;&gt;BIGINT&lt;/span&gt;(?)&lt;span style=&quot;font-family: &amp;#34;arial&amp;#34; , &amp;#34;helvetica&amp;#34; , sans-serif ; font-size: 13.3333px ; background-color: rgb(255 , 255 , 255)&quot;&gt;&lt;br&gt;&amp;nbsp;&lt;/span&gt;" style="text;html=1;strokeColor=none;fillColor=none;align=left;verticalAlign=top;spacingLeft=4;spacingRight=4;whiteSpace=wrap;overflow=hidden;rotatable=0;points=[[0,0.5],[1,0.5]];portConstraint=eastwest;" vertex="1" parent="4Ubxrk7s4MT3tRCv33ai-19">
          <mxGeometry y="26" width="160" height="26" as="geometry" />
        </mxCell>
        <mxCell id="4Ubxrk7s4MT3tRCv33ai-20" value="country:&amp;nbsp; VARCHAR(?)" style="text;html=1;strokeColor=none;fillColor=none;align=left;verticalAlign=top;spacingLeft=4;spacingRight=4;whiteSpace=wrap;overflow=hidden;rotatable=0;points=[[0,0.5],[1,0.5]];portConstraint=eastwest;" vertex="1" parent="4Ubxrk7s4MT3tRCv33ai-19">
          <mxGeometry y="52" width="160" height="30" as="geometry" />
        </mxCell>
        <mxCell id="4Ubxrk7s4MT3tRCv33ai-25" value="city:&amp;nbsp; VARCHAR(?)" style="text;html=1;strokeColor=none;fillColor=none;align=left;verticalAlign=top;spacingLeft=4;spacingRight=4;whiteSpace=wrap;overflow=hidden;rotatable=0;points=[[0,0.5],[1,0.5]];portConstraint=eastwest;" vertex="1" parent="4Ubxrk7s4MT3tRCv33ai-19">
          <mxGeometry y="82" width="160" height="28" as="geometry" />
        </mxCell>
        <mxCell id="4Ubxrk7s4MT3tRCv33ai-28" value="street:&amp;nbsp; VARCHAR(?)" style="text;html=1;strokeColor=none;fillColor=none;align=left;verticalAlign=top;spacingLeft=4;spacingRight=4;whiteSpace=wrap;overflow=hidden;rotatable=0;points=[[0,0.5],[1,0.5]];portConstraint=eastwest;" vertex="1" parent="4Ubxrk7s4MT3tRCv33ai-19">
          <mxGeometry y="110" width="160" height="28" as="geometry" />
        </mxCell>
        <mxCell id="4Ubxrk7s4MT3tRCv33ai-26" value="FK AreaID :&amp;nbsp;&lt;span style=&quot;font-family: &amp;#34;arial&amp;#34; , &amp;#34;helvetica&amp;#34; , sans-serif ; font-size: 13.3333px ; background-color: rgb(255 , 255 , 255)&quot;&gt;BIGINT&lt;/span&gt;(?)&lt;span style=&quot;font-family: &amp;#34;arial&amp;#34; , &amp;#34;helvetica&amp;#34; , sans-serif ; font-size: 13.3333px ; background-color: rgb(255 , 255 , 255)&quot;&gt;&lt;br&gt;&amp;nbsp;&lt;/span&gt;" style="text;html=1;strokeColor=none;fillColor=none;align=left;verticalAlign=top;spacingLeft=4;spacingRight=4;whiteSpace=wrap;overflow=hidden;rotatable=0;points=[[0,0.5],[1,0.5]];portConstraint=eastwest;" vertex="1" parent="4Ubxrk7s4MT3tRCv33ai-19">
          <mxGeometry y="138" width="160" height="26" as="geometry" />
        </mxCell>
        <mxCell id="4Ubxrk7s4MT3tRCv33ai-22" value="createdDate : date" style="text;html=1;strokeColor=none;fillColor=none;align=left;verticalAlign=top;spacingLeft=4;spacingRight=4;whiteSpace=wrap;overflow=hidden;rotatable=0;points=[[0,0.5],[1,0.5]];portConstraint=eastwest;" vertex="1" parent="4Ubxrk7s4MT3tRCv33ai-19">
          <mxGeometry y="164" width="160" height="26" as="geometry" />
        </mxCell>
        <mxCell id="4Ubxrk7s4MT3tRCv33ai-23" value="isDeleted :&amp;nbsp;&lt;span style=&quot;font-family: &amp;#34;open sans&amp;#34; , &amp;#34;arial&amp;#34; , sans-serif ; font-size: 14px&quot;&gt;boolean&lt;/span&gt;" style="text;html=1;strokeColor=none;fillColor=none;align=left;verticalAlign=top;spacingLeft=4;spacingRight=4;whiteSpace=wrap;overflow=hidden;rotatable=0;points=[[0,0.5],[1,0.5]];portConstraint=eastwest;" vertex="1" parent="4Ubxrk7s4MT3tRCv33ai-19">
          <mxGeometry y="190" width="160" height="26" as="geometry" />
        </mxCell>
        <mxCell id="4Ubxrk7s4MT3tRCv33ai-32" value="Currency" style="swimlane;html=1;fontStyle=0;childLayout=stackLayout;horizontal=1;startSize=26;fillColor=#FFD966;horizontalStack=0;resizeParent=1;resizeLast=0;collapsible=1;marginBottom=0;swimlaneFillColor=#ffffff;rounded=0;shadow=0;comic=0;labelBackgroundColor=none;strokeWidth=1;fontFamily=Verdana;fontSize=10;align=center;" vertex="1" parent="1">
          <mxGeometry x="265" y="60" width="160" height="150" as="geometry" />
        </mxCell>
        <mxCell id="4Ubxrk7s4MT3tRCv33ai-33" value="PK Id :&amp;nbsp;&lt;span style=&quot;font-family: &amp;#34;arial&amp;#34; , &amp;#34;helvetica&amp;#34; , sans-serif ; font-size: 13.3333px ; background-color: rgb(255 , 255 , 255)&quot;&gt;BIGINT&lt;/span&gt;(?)&lt;span style=&quot;font-family: &amp;#34;arial&amp;#34; , &amp;#34;helvetica&amp;#34; , sans-serif ; font-size: 13.3333px ; background-color: rgb(255 , 255 , 255)&quot;&gt;&lt;br&gt;&amp;nbsp;&lt;/span&gt;" style="text;html=1;strokeColor=none;fillColor=none;align=left;verticalAlign=top;spacingLeft=4;spacingRight=4;whiteSpace=wrap;overflow=hidden;rotatable=0;points=[[0,0.5],[1,0.5]];portConstraint=eastwest;" vertex="1" parent="4Ubxrk7s4MT3tRCv33ai-32">
          <mxGeometry y="26" width="160" height="26" as="geometry" />
        </mxCell>
        <mxCell id="4Ubxrk7s4MT3tRCv33ai-34" value="currency:&amp;nbsp; VARCHAR(?)" style="text;html=1;strokeColor=none;fillColor=none;align=left;verticalAlign=top;spacingLeft=4;spacingRight=4;whiteSpace=wrap;overflow=hidden;rotatable=0;points=[[0,0.5],[1,0.5]];portConstraint=eastwest;" vertex="1" parent="4Ubxrk7s4MT3tRCv33ai-32">
          <mxGeometry y="52" width="160" height="30" as="geometry" />
        </mxCell>
        <mxCell id="4Ubxrk7s4MT3tRCv33ai-38" value="createdDate : date" style="text;html=1;strokeColor=none;fillColor=none;align=left;verticalAlign=top;spacingLeft=4;spacingRight=4;whiteSpace=wrap;overflow=hidden;rotatable=0;points=[[0,0.5],[1,0.5]];portConstraint=eastwest;" vertex="1" parent="4Ubxrk7s4MT3tRCv33ai-32">
          <mxGeometry y="82" width="160" height="26" as="geometry" />
        </mxCell>
        <mxCell id="4Ubxrk7s4MT3tRCv33ai-39" value="isDeleted :&amp;nbsp;&lt;span style=&quot;font-family: &amp;#34;open sans&amp;#34; , &amp;#34;arial&amp;#34; , sans-serif ; font-size: 14px&quot;&gt;boolean&lt;/span&gt;" style="text;html=1;strokeColor=none;fillColor=none;align=left;verticalAlign=top;spacingLeft=4;spacingRight=4;whiteSpace=wrap;overflow=hidden;rotatable=0;points=[[0,0.5],[1,0.5]];portConstraint=eastwest;" vertex="1" parent="4Ubxrk7s4MT3tRCv33ai-32">
          <mxGeometry y="108" width="160" height="26" as="geometry" />
        </mxCell>
        <mxCell id="4Ubxrk7s4MT3tRCv33ai-40" value="PriceRate" style="swimlane;html=1;fontStyle=0;childLayout=stackLayout;horizontal=1;startSize=26;fillColor=#FFD966;horizontalStack=0;resizeParent=1;resizeLast=0;collapsible=1;marginBottom=0;swimlaneFillColor=#ffffff;rounded=0;shadow=0;comic=0;labelBackgroundColor=none;strokeWidth=1;fontFamily=Verdana;fontSize=10;align=center;" vertex="1" parent="1">
          <mxGeometry x="265" y="-130" width="160" height="150" as="geometry" />
        </mxCell>
        <mxCell id="4Ubxrk7s4MT3tRCv33ai-41" value="PK Id :&amp;nbsp;&lt;span style=&quot;font-family: &amp;#34;arial&amp;#34; , &amp;#34;helvetica&amp;#34; , sans-serif ; font-size: 13.3333px ; background-color: rgb(255 , 255 , 255)&quot;&gt;BIGINT&lt;/span&gt;(?)&lt;span style=&quot;font-family: &amp;#34;arial&amp;#34; , &amp;#34;helvetica&amp;#34; , sans-serif ; font-size: 13.3333px ; background-color: rgb(255 , 255 , 255)&quot;&gt;&lt;br&gt;&amp;nbsp;&lt;/span&gt;" style="text;html=1;strokeColor=none;fillColor=none;align=left;verticalAlign=top;spacingLeft=4;spacingRight=4;whiteSpace=wrap;overflow=hidden;rotatable=0;points=[[0,0.5],[1,0.5]];portConstraint=eastwest;" vertex="1" parent="4Ubxrk7s4MT3tRCv33ai-40">
          <mxGeometry y="26" width="160" height="26" as="geometry" />
        </mxCell>
        <mxCell id="4Ubxrk7s4MT3tRCv33ai-42" value="type:&amp;nbsp; VARCHAR(?)" style="text;html=1;strokeColor=none;fillColor=none;align=left;verticalAlign=top;spacingLeft=4;spacingRight=4;whiteSpace=wrap;overflow=hidden;rotatable=0;points=[[0,0.5],[1,0.5]];portConstraint=eastwest;" vertex="1" parent="4Ubxrk7s4MT3tRCv33ai-40">
          <mxGeometry y="52" width="160" height="30" as="geometry" />
        </mxCell>
        <mxCell id="4Ubxrk7s4MT3tRCv33ai-43" value="createdDate : date" style="text;html=1;strokeColor=none;fillColor=none;align=left;verticalAlign=top;spacingLeft=4;spacingRight=4;whiteSpace=wrap;overflow=hidden;rotatable=0;points=[[0,0.5],[1,0.5]];portConstraint=eastwest;" vertex="1" parent="4Ubxrk7s4MT3tRCv33ai-40">
          <mxGeometry y="82" width="160" height="26" as="geometry" />
        </mxCell>
        <mxCell id="4Ubxrk7s4MT3tRCv33ai-44" value="isDeleted :&amp;nbsp;&lt;span style=&quot;font-family: &amp;#34;open sans&amp;#34; , &amp;#34;arial&amp;#34; , sans-serif ; font-size: 14px&quot;&gt;boolean&lt;/span&gt;" style="text;html=1;strokeColor=none;fillColor=none;align=left;verticalAlign=top;spacingLeft=4;spacingRight=4;whiteSpace=wrap;overflow=hidden;rotatable=0;points=[[0,0.5],[1,0.5]];portConstraint=eastwest;" vertex="1" parent="4Ubxrk7s4MT3tRCv33ai-40">
          <mxGeometry y="108" width="160" height="26" as="geometry" />
        </mxCell>
        <mxCell id="4Ubxrk7s4MT3tRCv33ai-46" value="Price" style="swimlane;html=1;fontStyle=0;childLayout=stackLayout;horizontal=1;startSize=26;fillColor=#FFD966;horizontalStack=0;resizeParent=1;resizeLast=0;collapsible=1;marginBottom=0;swimlaneFillColor=#ffffff;rounded=0;shadow=0;comic=0;labelBackgroundColor=none;strokeWidth=1;fontFamily=Verdana;fontSize=10;align=center;" vertex="1" parent="1">
          <mxGeometry x="-5" y="20" width="170" height="150" as="geometry" />
        </mxCell>
        <mxCell id="4Ubxrk7s4MT3tRCv33ai-47" value="PK Id :&amp;nbsp;&lt;span style=&quot;font-family: &amp;#34;arial&amp;#34; , &amp;#34;helvetica&amp;#34; , sans-serif ; font-size: 13.3333px ; background-color: rgb(255 , 255 , 255)&quot;&gt;BIGINT&lt;/span&gt;(?)&lt;span style=&quot;font-family: &amp;#34;arial&amp;#34; , &amp;#34;helvetica&amp;#34; , sans-serif ; font-size: 13.3333px ; background-color: rgb(255 , 255 , 255)&quot;&gt;&lt;br&gt;&amp;nbsp;&lt;/span&gt;" style="text;html=1;strokeColor=none;fillColor=none;align=left;verticalAlign=top;spacingLeft=4;spacingRight=4;whiteSpace=wrap;overflow=hidden;rotatable=0;points=[[0,0.5],[1,0.5]];portConstraint=eastwest;" vertex="1" parent="4Ubxrk7s4MT3tRCv33ai-46">
          <mxGeometry y="26" width="170" height="26" as="geometry" />
        </mxCell>
        <mxCell id="4Ubxrk7s4MT3tRCv33ai-48" value="price:&amp;nbsp; double(?)" style="text;html=1;strokeColor=none;fillColor=none;align=left;verticalAlign=top;spacingLeft=4;spacingRight=4;whiteSpace=wrap;overflow=hidden;rotatable=0;points=[[0,0.5],[1,0.5]];portConstraint=eastwest;" vertex="1" parent="4Ubxrk7s4MT3tRCv33ai-46">
          <mxGeometry y="52" width="170" height="30" as="geometry" />
        </mxCell>
        <mxCell id="4Ubxrk7s4MT3tRCv33ai-54" value="FK PriceRateID :&amp;nbsp;&lt;span style=&quot;font-family: &amp;#34;arial&amp;#34; , &amp;#34;helvetica&amp;#34; , sans-serif ; font-size: 13.3333px ; background-color: rgb(255 , 255 , 255)&quot;&gt;BIGINT&lt;/span&gt;(?)&lt;span style=&quot;font-family: &amp;#34;arial&amp;#34; , &amp;#34;helvetica&amp;#34; , sans-serif ; font-size: 13.3333px ; background-color: rgb(255 , 255 , 255)&quot;&gt;&lt;br&gt;&amp;nbsp;&lt;/span&gt;" style="text;html=1;strokeColor=none;fillColor=none;align=left;verticalAlign=top;spacingLeft=4;spacingRight=4;whiteSpace=wrap;overflow=hidden;rotatable=0;points=[[0,0.5],[1,0.5]];portConstraint=eastwest;" vertex="1" parent="4Ubxrk7s4MT3tRCv33ai-46">
          <mxGeometry y="82" width="170" height="30" as="geometry" />
        </mxCell>
        <mxCell id="4Ubxrk7s4MT3tRCv33ai-55" value="FK CurrencyID :&amp;nbsp;&lt;span style=&quot;font-family: &amp;#34;arial&amp;#34; , &amp;#34;helvetica&amp;#34; , sans-serif ; font-size: 13.3333px ; background-color: rgb(255 , 255 , 255)&quot;&gt;BIGINT&lt;/span&gt;(?)&lt;span style=&quot;font-family: &amp;#34;arial&amp;#34; , &amp;#34;helvetica&amp;#34; , sans-serif ; font-size: 13.3333px ; background-color: rgb(255 , 255 , 255)&quot;&gt;&lt;br&gt;&amp;nbsp;&lt;/span&gt;" style="text;html=1;strokeColor=none;fillColor=none;align=left;verticalAlign=top;spacingLeft=4;spacingRight=4;whiteSpace=wrap;overflow=hidden;rotatable=0;points=[[0,0.5],[1,0.5]];portConstraint=eastwest;" vertex="1" parent="4Ubxrk7s4MT3tRCv33ai-46">
          <mxGeometry y="112" width="170" height="30" as="geometry" />
        </mxCell>
        <mxCell id="4Ubxrk7s4MT3tRCv33ai-64" style="edgeStyle=orthogonalEdgeStyle;rounded=0;orthogonalLoop=1;jettySize=auto;html=1;" edge="1" parent="1" source="ZYrpAKafaMUzDecGM8QH-53">
          <mxGeometry relative="1" as="geometry">
            <mxPoint x="-629.9999999999999" y="-290" as="targetPoint" />
          </mxGeometry>
        </mxCell>
        <mxCell id="4Ubxrk7s4MT3tRCv33ai-67" style="edgeStyle=orthogonalEdgeStyle;rounded=0;orthogonalLoop=1;jettySize=auto;html=1;exitX=1;exitY=0.5;exitDx=0;exitDy=0;entryX=0.002;entryY=0.327;entryDx=0;entryDy=0;entryPerimeter=0;" edge="1" parent="1" source="4Ubxrk7s4MT3tRCv33ai-9" target="4Ubxrk7s4MT3tRCv33ai-25">
          <mxGeometry relative="1" as="geometry" />
        </mxCell>
        <mxCell id="4Ubxrk7s4MT3tRCv33ai-70" style="edgeStyle=orthogonalEdgeStyle;rounded=0;orthogonalLoop=1;jettySize=auto;html=1;entryX=0.845;entryY=0.012;entryDx=0;entryDy=0;entryPerimeter=0;" edge="1" parent="1" source="4Ubxrk7s4MT3tRCv33ai-42" target="4Ubxrk7s4MT3tRCv33ai-46">
          <mxGeometry relative="1" as="geometry" />
        </mxCell>
        <mxCell id="4Ubxrk7s4MT3tRCv33ai-71" style="edgeStyle=orthogonalEdgeStyle;rounded=0;orthogonalLoop=1;jettySize=auto;html=1;exitX=0;exitY=0.5;exitDx=0;exitDy=0;entryX=1.012;entryY=0.717;entryDx=0;entryDy=0;entryPerimeter=0;" edge="1" parent="1" source="4Ubxrk7s4MT3tRCv33ai-38" target="4Ubxrk7s4MT3tRCv33ai-54">
          <mxGeometry relative="1" as="geometry">
            <mxPoint x="250" y="155.16666666666674" as="targetPoint" />
          </mxGeometry>
        </mxCell>
      </root>
    </mxGraphModel>
  </diagram>
</mxfile>
